<svg width="1281" height="1281" viewBox="0 0 1281 1281" fill="none" xmlns="http://www.w3.org/2000/svg">
<circle cx="640.5" cy="640.5" r="640.5" fill="#5452C1"/>
<g clip-path="url(#clip0_304_7)">
<path d="M612.993 1071.73C529.346 1066.84 449.066 1037 379.712 985.013C348.113 961.328 305.167 916.384 283.274 884.09C253.899 840.758 229.921 785.421 218.846 735.401C210.86 699.332 209.79 687.836 209.845 638.739C209.903 586.449 212.225 567.816 224.072 524.574C255.548 409.684 336.922 309.799 442.978 255.87C509.475 222.057 568.075 208.168 642.945 208.476C711.791 208.759 770.114 222.138 829.589 251.29C873.45 272.789 905.727 295.465 940.992 329.555C1012.73 398.903 1056.27 485.284 1070.19 585.912C1073.66 610.931 1073.18 675.25 1069.35 700.371C1062.25 746.909 1048.82 790.481 1029.47 829.797C986.609 916.859 919.192 984.491 832.14 1027.75C764.162 1061.53 690.735 1076.27 612.993 1071.73V1071.73ZM678.671 990.822C758.161 982.182 833.062 946.285 889.538 889.763C991.672 787.547 1021.28 636.108 965.269 502.411C957.333 483.468 945.859 462.029 935.641 447.054L930.407 439.383L916.974 440.612C814.669 449.971 730.139 516.986 698.497 613.82C691.654 634.762 688.188 653.908 686.321 681.085C684.02 714.593 676.511 727.729 653.579 738.365L641.323 744.049L632.594 740.608C621.932 736.405 615.995 732.286 608.812 724.104C599.996 714.062 597.764 706.658 595.289 679.24C591.332 635.421 585.082 612.171 568.072 577.988C529.448 500.372 452.221 448.435 363.766 440.588L350.465 439.408L341.329 454.306C290.367 537.413 275.734 634.364 299.806 729.401C320.707 811.915 374.612 886.974 447.498 935.054C489.8 962.958 543.949 983.144 594.524 989.862C617.196 992.874 655.747 993.314 678.671 990.822V990.822ZM418.059 686.29C396.875 682.568 375.18 665.891 365.979 646.255C361.711 637.146 361.22 634.098 361.22 616.728C361.22 599.398 361.717 596.297 365.939 587.289C379.076 559.259 411.029 541.911 440.518 546.797C464.633 550.794 484.942 565.696 495.022 586.792C501.683 600.732 503.194 622.882 498.503 637.797C488.05 671.035 452.66 692.368 418.059 686.29ZM835.751 685.596C799.373 677.507 774.324 640.613 780.934 604.857C787.933 566.995 825.246 540.393 862.22 546.906C885.953 551.087 905.343 565.747 915.499 587.188C920.69 598.148 921.149 600.554 921.149 616.766C921.149 633.158 920.738 635.251 915.364 646.164C904.852 667.517 886.061 681.879 863.078 686.128C850.65 688.426 848.269 688.379 835.751 685.596V685.596ZM671.528 507.552C716.117 442.671 784.6 395.912 863.924 376.186L871.847 374.216L863.924 367.266C838.529 344.992 789.602 318.263 751.381 305.783C708.454 291.768 677.971 287.497 630.062 288.786C582.46 290.066 544.751 298.052 502.915 315.712C474.038 327.902 438.387 349.707 414.404 369.849L409.481 373.983L427.609 378.838C483.163 393.714 530.222 421.213 572.525 463.518C598.681 489.676 614.297 510.707 629.893 540.778L640.733 561.677L650.685 542.539C656.158 532.012 665.538 516.268 671.528 507.552V507.552Z" fill="white"/>
</g>
<defs>
<clipPath id="clip0_304_7">
<rect width="862.686" height="864.058" fill="white" transform="translate(209.843 208.471)"/>
</clipPath>
</defs>
</svg>
