<?xml version="1.0" encoding="UTF-8" standalone="no"?>
<svg
   width="483.5799"
   height="483.5799"
   viewBox="0 0 483.5799 483.5799"
   fill="none"
   version="1.1"
   id="svg842"
   sodipodi:docname="Group 30.svg"
   inkscape:version="1.1.2 (b8e25be8, 2022-02-05)"
   xmlns:inkscape="http://www.inkscape.org/namespaces/inkscape"
   xmlns:sodipodi="http://sodipodi.sourceforge.net/DTD/sodipodi-0.dtd"
   xmlns="http://www.w3.org/2000/svg"
   xmlns:svg="http://www.w3.org/2000/svg">
  <defs
     id="defs846" />
  <sodipodi:namedview
     id="namedview844"
     pagecolor="#505050"
     bordercolor="#eeeeee"
     borderopacity="1"
     inkscape:pageshadow="0"
     inkscape:pageopacity="0"
     inkscape:pagecheckerboard="0"
     showgrid="false"
     fit-margin-top="0"
     fit-margin-left="0"
     fit-margin-right="0"
     fit-margin-bottom="0"
     inkscape:zoom="0.41745714"
     inkscape:cx="216.78872"
     inkscape:cy="256.31374"
     inkscape:window-width="1312"
     inkscape:window-height="872"
     inkscape:window-x="0"
     inkscape:window-y="0"
     inkscape:window-maximized="0"
     inkscape:current-layer="svg842" />
  <circle
     cx="241.78995"
     cy="241.78995"
     r="219.40199"
     stroke="#5452c1"
     stroke-width="44.7759"
     id="circle824" />
  <mask
     id="path-2-inside-1_162_24"
     fill="#ffffff">
    <path
       d="m 361.192,270.148 c 0,-23.716 -4.671,-47.2 -13.747,-69.111 -9.076,-21.911 -22.378,-41.82 -39.148,-58.59 -16.77,-16.77 -36.679,-30.072 -58.59,-39.148 -21.911,-9.0757 -45.395,-13.747 -69.111,-13.747 v 40.276 c 18.427,0 36.674,3.629 53.698,10.681 17.025,7.052 32.494,17.388 45.523,30.418 13.03,13.03 23.366,28.498 30.418,45.523 7.052,17.024 10.681,35.271 10.681,53.698 z"
       id="path826" />
  </mask>
  <path
     d="m 361.192,270.148 c 0,-23.716 -4.671,-47.2 -13.747,-69.111 -9.076,-21.911 -22.378,-41.82 -39.148,-58.59 -16.77,-16.77 -36.679,-30.072 -58.59,-39.148 -21.911,-9.0757 -45.395,-13.747 -69.111,-13.747 v 40.276 c 18.427,0 36.674,3.629 53.698,10.681 17.025,7.052 32.494,17.388 45.523,30.418 13.03,13.03 23.366,28.498 30.418,45.523 7.052,17.024 10.681,35.271 10.681,53.698 z"
     stroke="#5452c1"
     stroke-width="89.5518"
     mask="url(#path-2-inside-1_162_24)"
     id="path829"
     transform="translate(-104.47705,-4.9591064e-5)" />
  <mask
     id="path-3-inside-2_162_24"
     fill="#ffffff">
    <path
       d="m 331.341,270.148 c 0,-23.716 4.671,-47.2 13.747,-69.111 9.076,-21.911 22.379,-41.82 39.148,-58.59 16.77,-16.77 36.679,-30.072 58.59,-39.148 21.911,-9.0757 45.395,-13.747 69.111,-13.747 v 40.276 c -18.427,0 -36.674,3.629 -53.698,10.681 -17.025,7.052 -32.493,17.388 -45.523,30.418 -13.03,13.03 -23.366,28.498 -30.418,45.523 -7.052,17.024 -10.681,35.271 -10.681,53.698 z"
       id="path831" />
  </mask>
  <path
     d="m 331.341,270.148 c 0,-23.716 4.671,-47.2 13.747,-69.111 9.076,-21.911 22.379,-41.82 39.148,-58.59 16.77,-16.77 36.679,-30.072 58.59,-39.148 21.911,-9.0757 45.395,-13.747 69.111,-13.747 v 40.276 c -18.427,0 -36.674,3.629 -53.698,10.681 -17.025,7.052 -32.493,17.388 -45.523,30.418 -13.03,13.03 -23.366,28.498 -30.418,45.523 -7.052,17.024 -10.681,35.271 -10.681,53.698 z"
     stroke="#5452c1"
     stroke-width="89.5518"
     mask="url(#path-3-inside-2_162_24)"
     id="path834"
     transform="translate(-104.47705,-4.9591064e-5)" />
  <path
     d="m 267.20695,268.05995 c 0,3.92 -0.657,7.801 -1.931,11.422 -1.275,3.621 -3.144,6.911 -5.5,9.682 -2.356,2.772 -5.152,4.97 -8.23,6.47 -3.078,1.5 -9.709,4.159 -9.709,4.159 0,0 -6.63,-2.659 -9.708,-4.159 -3.078,-1.5 -5.874,-3.698 -8.23,-6.47 -2.356,-2.771 -4.225,-6.061 -5.5,-9.682 -1.274,-3.621 -1.931,-7.502 -1.931,-11.422 h 25.369 z"
     fill="#5452c1"
     id="path836" />
  <ellipse
     cx="124.34496"
     cy="228.59195"
     rx="39.8246"
     ry="39.594398"
     fill="#5452c1"
     id="ellipse838" />
  <ellipse
     cx="359.27094"
     cy="228.59195"
     rx="39.8246"
     ry="39.594398"
     fill="#5452c1"
     id="ellipse840" />
</svg>
